<svg width="80" height="61" viewBox="0 0 80 61" fill="none" xmlns="http://www.w3.org/2000/svg">
<path d="M44.006 12.036C56.68 12.036 63.87 20.424 64.916 30.556H65.236C73.392 30.556 80.004 37.152 80.004 45.286C80.004 53.422 73.392 60.016 65.236 60.016H22.776C14.62 60.016 8.00799 53.422 8.00799 45.286C8.00799 37.152 14.62 30.556 22.778 30.556H23.098C24.15 20.358 31.332 12.036 44.006 12.036ZM32 1.08425e-06C35.0758 -0.00104172 38.1053 0.750143 40.8243 2.18809C43.5434 3.62605 45.8695 5.70713 47.6 8.25C46.4054 8.10591 45.2032 8.03445 44 8.036C31.844 8.036 23.048 14.912 20.08 25.264L19.92 25.844L19.69 26.794L18.862 26.948C15.7137 27.6137 12.7896 29.0783 10.371 31.2009C7.95242 33.3235 6.12069 36.0327 5.05199 39.068C2.89659 37.3862 1.32004 35.0734 0.542346 32.4524C-0.235346 29.8314 -0.175367 27.033 0.713911 24.4478C1.60319 21.8625 3.27739 19.6194 5.50288 18.0315C7.72836 16.4435 10.3941 15.59 13.128 15.59H13.412C14.185 11.2217 16.4716 7.26508 19.8706 4.41433C23.2695 1.56357 27.5638 0.000737715 32 1.08425e-06Z" fill="white"/>
</svg>
